# xmcd CD database file
#
# Track frame offsets:
#	150
#	15460
#	29406
#	44281
#	61720
#	76728
#	91532
#	104622
#	122079
#	135796
#	153100
#	169922
#	186936
#	200878
#
# Disc length: 2938 seconds
#
# Revision: 0
# Processed by: cddbd v1.5.1PL2 Copyright (c) Steve Scherf et al.
# Submitted via: CDex 1.51
#
DISCID=a60b780e
DTITLE=Truck Stop - Immer geradeaus
DYEAR=1900
DGENRE=Country
TTITLE0=Truck Stop - Alle machen's
TTITLE1=Truck Stop - Laxter Sand
TTITLE2=Truck Stop - Kalte Pizza und lauwarmes Bier
TTITLE3=Truck Stop - Grand Canyon
TTITLE4=Truck Stop - Ist das nicht ein bisschen wen
TTITLE5=Truck Stop - Hand und Fuss
TTITLE6=Truck Stop - Echte Cowboys weinen nie
TTITLE7=Truck Stop - Alle Wege führ'n zurück zu dir
TTITLE8=Truck Stop - Wir sind die Elbe Cowboys
TTITLE9=Truck Stop - Engel der zu nah am Boden flie
TTITLE10=Truck Stop - Papa musste selbst erwachsen w
TTITLE11=Truck Stop - Susanna
TTITLE12=Truck Stop - Blue Tattoo
TTITLE13=Truck Stop - Immer geradeaus
EXTD=
EXTT0=
EXTT1=
EXTT2=
EXTT3=
EXTT4=
EXTT5=
EXTT6=
EXTT7=
EXTT8=
EXTT9=
EXTT10=
EXTT11=
EXTT12=
EXTT13=
PLAYORDER=
